<svg xmlns="http://www.w3.org/2000/svg" width="57.089" height="57.089" viewBox="0 0 57.089 57.089">
  <g id="facebook-logo" transform="translate(9940 -8447)">
    <path id="fb-round" d="M393.251,1132.359c-.073,0-.147,0-.22,0a28.7,28.7,0,0,1-5.648-.6,28.316,28.316,0,0,1-9.008-3.574,28.633,28.633,0,1,1,14.875,4.178Zm0-55.089a26.544,26.544,0,0,0-.2,53.087h.2a26.819,26.819,0,0,0,3.026-.17,26.546,26.546,0,0,0-3.026-52.919Z" transform="translate(-10304.707 7371.73)" fill="#840000"/>
    <path id="fb-letter" d="M515.1,1156.324v5.475h7.274l-.979,7.4h-6.3v18.933c-5.475.009-6.575,0-7.57,0h-.192V1169.2h-6.3v-7.4h6.3v-6.28a8.955,8.955,0,0,1,8.565-8.947,27.4,27.4,0,0,1,3.827.1l2.827.274v6.6h-4.68a2.777,2.777,0,0,0-2.777,2.777" transform="translate(-10422.823 7307.651)" fill="#840000"/>
  </g>
</svg>
