<svg xmlns="http://www.w3.org/2000/svg" width="213.044" height="191.253" viewBox="0 0 213.044 191.253">
  <g id="footer-tablet-logo" transform="translate(-353 -440)">
    <text id="E.O" transform="translate(458.438 548.984)" fill="#eee" font-size="31" font-family="Ebrima" letter-spacing="0.1em"><tspan x="-25.987" y="0">E.O</tspan></text>
    <g id="Group_25" data-name="Group 25" transform="translate(353 440)">
      <g id="Group_18" data-name="Group 18" transform="translate(37.672 34.122)">
        <path id="Path_86" data-name="Path 86" d="M10.921,5.942,84.9,14.376,73.979,8.434,0,0Z" transform="matrix(-0.809, -0.588, 0.588, -0.809, 68.686, 123.02)" fill="#ddd"/>
        <path id="Path_87" data-name="Path 87" d="M10.921,8.434,84.9,0,73.979,5.942,0,14.376Z" transform="matrix(-0.809, 0.588, -0.588, -0.809, 77.136, 11.63)" fill="#ddd"/>
        <path id="Path_88" data-name="Path 88" d="M10.921,8.434,84.9,0,73.979,5.942,0,14.376Z" transform="matrix(0.809, -0.588, 0.588, 0.809, 59.901, 111.39)" fill="#ddd"/>
        <path id="Path_89" data-name="Path 89" d="M10.921,5.942,84.9,14.376,73.979,8.434,0,0Z" transform="matrix(0.809, 0.588, -0.588, 0.809, 68.351, 0)" fill="#ddd"/>
      </g>
      <g id="Group_19" data-name="Group 19" transform="translate(20.939 18.799)">
        <path id="Path_86-2" data-name="Path 86" d="M13.641,7.422l92.4,10.535L92.4,10.535,0,0Z" transform="matrix(-0.809, -0.588, 0.588, -0.809, 85.792, 153.658)" fill="#ddd"/>
        <path id="Path_87-2" data-name="Path 87" d="M13.641,10.535,106.044,0,92.4,7.422,0,17.956Z" transform="matrix(-0.809, 0.588, -0.588, -0.809, 96.346, 14.527)" fill="#ddd"/>
        <path id="Path_88-2" data-name="Path 88" d="M13.641,10.535,106.044,0,92.4,7.422,0,17.956Z" transform="matrix(0.809, -0.588, 0.588, 0.809, 74.819, 139.131)" fill="#ddd"/>
        <path id="Path_89-2" data-name="Path 89" d="M13.641,7.422l92.4,10.535L92.4,10.535,0,0Z" transform="matrix(0.809, 0.588, -0.588, 0.809, 85.374, 0)" fill="#ddd"/>
      </g>
      <g id="Group_20" data-name="Group 20" transform="translate(0)">
        <path id="Path_86-3" data-name="Path 86" d="M16.978,9.237,131.99,22.35l-16.978-9.237L0,0Z" transform="matrix(-0.809, -0.588, 0.588, -0.809, 106.782, 191.253)" fill="#ddd"/>
        <path id="Path_87-3" data-name="Path 87" d="M16.978,13.112,131.99,0,115.012,9.237,0,22.35Z" transform="matrix(-0.809, 0.588, -0.588, -0.809, 119.919, 18.081)" fill="#ddd"/>
        <path id="Path_88-3" data-name="Path 88" d="M16.978,13.112,131.99,0,115.012,9.237,0,22.35Z" transform="matrix(0.809, -0.588, 0.588, 0.809, 93.125, 173.172)" fill="#ddd"/>
        <path id="Path_89-3" data-name="Path 89" d="M16.978,9.237,131.99,22.35l-16.978-9.237L0,0Z" transform="matrix(0.809, 0.588, -0.588, 0.809, 106.262, 0)" fill="#ddd"/>
      </g>
    </g>
  </g>
</svg>
