<svg xmlns="http://www.w3.org/2000/svg" width="108.466" height="97.372" viewBox="0 0 108.466 97.372">
  <g id="footer-mobile-logo" transform="translate(-353 -440)">
    <text id="E.O" transform="translate(406.444 495.685)" fill="#eee" font-size="16" font-family="Ebrima" letter-spacing="0.1em"><tspan x="-13.413" y="0">E.O</tspan></text>
    <g id="Group_25" data-name="Group 25" transform="translate(353 440)">
      <g id="Group_18" data-name="Group 18" transform="translate(19.18 17.372)">
        <path id="Path_86" data-name="Path 86" d="M5.56,3.025,43.225,7.319l-5.56-3.025L0,0Z" transform="matrix(-0.809, -0.588, 0.588, -0.809, 34.97, 62.633)" fill="#ddd"/>
        <path id="Path_87" data-name="Path 87" d="M5.56,4.294,43.225,0l-5.56,3.025L0,7.319Z" transform="matrix(-0.809, 0.588, -0.588, -0.809, 39.272, 5.921)" fill="#ddd"/>
        <path id="Path_88" data-name="Path 88" d="M5.56,4.294,43.225,0l-5.56,3.025L0,7.319Z" transform="matrix(0.809, -0.588, 0.588, 0.809, 30.497, 56.711)" fill="#ddd"/>
        <path id="Path_89" data-name="Path 89" d="M5.56,3.025,43.225,7.319l-5.56-3.025L0,0Z" transform="matrix(0.809, 0.588, -0.588, 0.809, 34.799, 0)" fill="#ddd"/>
      </g>
      <g id="Group_19" data-name="Group 19" transform="translate(10.661 9.571)">
        <path id="Path_86-2" data-name="Path 86" d="M6.945,3.779,53.99,9.142,47.045,5.364,0,0Z" transform="matrix(-0.809, -0.588, 0.588, -0.809, 43.679, 78.231)" fill="#ddd"/>
        <path id="Path_87-2" data-name="Path 87" d="M6.945,5.364,53.99,0,47.045,3.779,0,9.142Z" transform="matrix(-0.809, 0.588, -0.588, -0.809, 49.052, 7.396)" fill="#ddd"/>
        <path id="Path_88-2" data-name="Path 88" d="M6.945,5.364,53.99,0,47.045,3.779,0,9.142Z" transform="matrix(0.809, -0.588, 0.588, 0.809, 38.092, 70.835)" fill="#ddd"/>
        <path id="Path_89-2" data-name="Path 89" d="M6.945,3.779,53.99,9.142,47.045,5.364,0,0Z" transform="matrix(0.809, 0.588, -0.588, 0.809, 43.466, 0)" fill="#ddd"/>
      </g>
      <g id="Group_20" data-name="Group 20">
        <path id="Path_86-3" data-name="Path 86" d="M8.644,4.7,67.2,11.379l-8.644-4.7L0,0Z" transform="matrix(-0.809, -0.588, 0.588, -0.809, 54.365, 97.372)" fill="#ddd"/>
        <path id="Path_87-3" data-name="Path 87" d="M8.644,6.676,67.2,0,58.555,4.7,0,11.379Z" transform="matrix(-0.809, 0.588, -0.588, -0.809, 61.054, 9.206)" fill="#ddd"/>
        <path id="Path_88-3" data-name="Path 88" d="M8.644,6.676,67.2,0,58.555,4.7,0,11.379Z" transform="matrix(0.809, -0.588, 0.588, 0.809, 47.412, 88.166)" fill="#ddd"/>
        <path id="Path_89-3" data-name="Path 89" d="M8.644,4.7,67.2,11.379l-8.644-4.7L0,0Z" transform="matrix(0.809, 0.588, -0.588, 0.809, 54.1, 0)" fill="#ddd"/>
      </g>
    </g>
  </g>
</svg>
