<svg xmlns="http://www.w3.org/2000/svg" width="57.09" height="57.089" viewBox="0 0 57.09 57.089">
  <g id="google-logo" transform="translate(9774.672 -8447.455)">
    <path id="glg-round" d="M2233.393,1132.359h-.218a28.721,28.721,0,0,1-5.65-.6,28.577,28.577,0,1,1,28.706-10.813,28.5,28.5,0,0,1-22.838,11.417Zm0-55.089a26.544,26.544,0,0,0-.2,53.088h.2a26.866,26.866,0,0,0,3.025-.17,26.546,26.546,0,0,0-3.025-52.919Z" transform="translate(-11979.521 7372.185)" fill="#840000"/>
    <path id="glg-letter" d="M2324.463,1176.577c0-.116-.006-.231-.009-.347,0-.1-.007-.191-.013-.286s-.011-.2-.018-.307c-.006-.084-.011-.171-.018-.255,0-.041-.008-.079-.011-.119-.005-.062-.011-.127-.016-.189-.013-.121-.026-.24-.041-.362-.011-.094-.024-.189-.037-.282h-17.854v7.442h9.635a10.856,10.856,0,1,1-2.7-13.358l5.078-5.077a18.008,18.008,0,1,0,5.3,18.435l.011-.038c.017-.055.031-.108.046-.165s.028-.1.041-.145c.047-.184.094-.367.137-.554.022-.1.044-.189.064-.286,0-.015.008-.031.011-.046.015-.075.032-.15.046-.227.005-.028.011-.055.016-.083.037-.187.07-.378.1-.569q.024-.143.044-.286c.007-.053.014-.1.022-.158s.011-.079.017-.117c.007-.053.013-.107.018-.162s.013-.1.018-.154.009-.077.013-.114c.011-.1.021-.193.028-.29s.016-.187.024-.281l.011-.16c0-.059.007-.117.009-.174,0-.02,0-.041,0-.061,0-.075.008-.15.011-.226,0-.042,0-.084,0-.126.006-.194.009-.387.009-.584,0-.1,0-.193,0-.29" transform="translate(-12052.573 7299.131)" fill="#840000"/>
  </g>
</svg>
