<svg xmlns="http://www.w3.org/2000/svg" width="57.089" height="57.089" viewBox="0 0 57.089 57.089">
  <g id="instagram-logo" transform="translate(9857 -8447)">
    <path id="ig-big-round" d="M1006.633,1132.359c-.072,0-.147,0-.219,0a28.693,28.693,0,0,1-5.647-.6,28.575,28.575,0,1,1,28.705-10.812,28.5,28.5,0,0,1-22.838,11.417Zm0-55.089a26.544,26.544,0,0,0-.2,53.087h.2a26.86,26.86,0,0,0,3.027-.17,26.546,26.546,0,0,0-3.027-52.919Z" transform="translate(-10835.09 7371.73)" fill="#840000"/>
    <g id="Group_5" data-name="Group 5" transform="translate(-9847.048 8455.575)">
      <path id="ig-box" d="M1082.689,1174.189a6.837,6.837,0,0,1-6.828,6.829h-18.083a6.835,6.835,0,0,1-6.827-6.829v-18.083a6.834,6.834,0,0,1,6.827-6.827h18.083a6.835,6.835,0,0,1,6.828,6.827Zm-6.828-27.639h-18.083a9.557,9.557,0,0,0-9.557,9.556v18.083a9.557,9.557,0,0,0,9.557,9.557h18.083a9.568,9.568,0,0,0,9.557-9.557v-18.083a9.568,9.568,0,0,0-9.557-9.556" transform="translate(-1048.22 -1146.55)" fill="#840000"/>
      <path id="ig-round" d="M1114.724,1221.152a8.107,8.107,0,1,1,8.108-8.108A8.116,8.116,0,0,1,1114.724,1221.152Zm0-19.522a11.413,11.413,0,1,0,11.414,11.414,11.427,11.427,0,0,0-11.414-11.414" transform="translate(-1096.125 -1194.445)" fill="#840000"/>
      <path id="ig-dot" d="M1215.712,1188.971a2.551,2.551,0,1,1-2.551-2.551,2.551,2.551,0,0,1,2.551,2.551" transform="translate(-1184.288 -1179.958)" fill="#840000"/>
    </g>
  </g>
</svg>
