<svg xmlns="http://www.w3.org/2000/svg" width="57.089" height="57.089" viewBox="0 0 57.089 57.089">
  <g id="linkden-logo" transform="translate(9608 -8447)">
    <path id="lkn-round" d="M5300.295,1132.359a28.537,28.537,0,1,1,14.326-3.85A28.5,28.5,0,0,1,5300.295,1132.359Zm0-55.089a26.547,26.547,0,1,0,26.545,26.544A26.574,26.574,0,0,0,5300.295,1077.27Z" transform="translate(-14879.751 7371.73)" fill="#840000"/>
    <g id="Group_6" data-name="Group 6" transform="translate(-9598.048 8456.952)">
      <path id="lkn-dot" d="M5357.53,1157.771a4.715,4.715,0,1,1-4.713-4.751,4.717,4.717,0,0,1,4.713,4.751" transform="translate(-5348.101 -1153.02)" fill="#840000"/>
      <path id="lkn-letter-n" d="M5431.222,1222.891v-4h-7.642v25.956h7.642q0-5.387,0-10.773c0-.926-.023-1.851.024-2.779a7.606,7.606,0,0,1,.407-2.189,4.2,4.2,0,0,1,2.017-2.432,5.045,5.045,0,0,1,2.432-.52,4.469,4.469,0,0,1,1.693.31,3.706,3.706,0,0,1,2.066,2.267,8.563,8.563,0,0,1,.482,3.025q.014,6.545,0,13.09h7.943q0-7.726,0-15.454a18.464,18.464,0,0,0-.11-2.142,11.692,11.692,0,0,0-.746-3.054,7.966,7.966,0,0,0-3.756-4.238,10.072,10.072,0,0,0-4.445-1.064,9.773,9.773,0,0,0-1.983.146,8.86,8.86,0,0,0-4.921,2.625,8.335,8.335,0,0,0-1.107,1.413v-.185" transform="translate(-5411.304 -1208.344)" fill="#840000"/>
      <path id="lkn-letter-i" d="M5360.239,1218.89h-7.979v25.956h7.979V1218.89" transform="translate(-5351.538 -1208.347)" fill="#840000"/>
    </g>
  </g>
</svg>
