<svg xmlns="http://www.w3.org/2000/svg" width="57.09" height="57.089" viewBox="0 0 57.09 57.089">
  <g id="x-logo" transform="translate(9691.412 -8447.455)">
    <path id="x-round" d="M2233.393,1132.359h-.218a28.721,28.721,0,0,1-5.65-.6,28.577,28.577,0,1,1,28.706-10.813,28.5,28.5,0,0,1-22.838,11.417Zm0-55.089a26.544,26.544,0,0,0-.2,53.088h.2a26.866,26.866,0,0,0,3.025-.17,26.546,26.546,0,0,0-3.025-52.919Z" transform="translate(-11896.262 7372.185)" fill="#840000"/>
    <path id="x-letter" d="M20.838,20.632,33.873,35.784H30.784L19.466,22.627l-9.04,13.156H0L13.67,15.889,0,0H3.089L15.041,13.893,24.588,0H35.014L20.837,20.632Zm-4.231-4.918-1.385,1.981L4.2,33.458H8.947L17.84,20.737l1.385-1.981L30.786,2.22H26.041L16.607,15.713Z" transform="translate(-9680.374 8458.107)" fill="#840000"/>
  </g>
</svg>
